<svg width="52" height="52" viewBox="0 0 52 52" fill="none" xmlns="http://www.w3.org/2000/svg">
<circle cx="26" cy="26" r="21" fill="white"/>
<g clip-path="url(#clip0_65_415)">
<path d="M17.3762 15.6112C16.2863 18.6205 14.2983 28.614 13.75 33H24.25C24.7052 26.6269 24.8052 19.3135 24.8272 16.4085C24.8335 15.578 24.5357 14.7507 23.7977 14.3699C23.1781 14.0502 22.2694 13.75 21.0417 13.75C19.3402 13.75 18.3875 14.3266 17.9277 14.7324C17.6636 14.9655 17.4962 15.28 17.3762 15.6112Z" fill="#E5EBED"/>
<path d="M34.6239 15.6112C35.7138 18.6205 37.7018 28.614 38.2501 33H27.7501C27.2949 26.6269 27.1949 19.3135 27.1729 16.4085C27.1666 15.578 27.4643 14.7507 28.2024 14.3699C28.822 14.0502 29.7307 13.75 30.9584 13.75C32.6598 13.75 33.6126 14.3266 34.0724 14.7324C34.3365 14.9655 34.5039 15.28 34.6239 15.6112Z" fill="#E5EBED"/>
<path d="M27.75 33C27.75 35.8995 30.1005 38.25 33 38.25C35.8995 38.25 38.25 35.8995 38.25 33C38.25 30.1005 35.8995 27.75 33 27.75C30.1005 27.75 27.75 30.1005 27.75 33Z" fill="white"/>
<path d="M13.75 33C13.75 33.6894 13.8858 34.3721 14.1496 35.0091C14.4135 35.646 14.8002 36.2248 15.2877 36.7123C15.7752 37.1998 16.354 37.5865 16.9909 37.8504C17.6279 38.1142 18.3106 38.25 19 38.25C19.6894 38.25 20.3721 38.1142 21.0091 37.8504C21.646 37.5865 22.2248 37.1998 22.7123 36.7123C23.1998 36.2248 23.5865 35.646 23.8504 35.0091C24.1142 34.3721 24.25 33.6894 24.25 33C24.25 32.3106 24.1142 31.6279 23.8504 30.9909C23.5865 30.354 23.1998 29.7752 22.7123 29.2877C22.2248 28.8002 21.646 28.4135 21.0091 28.1496C20.3721 27.8858 19.6894 27.75 19 27.75C18.3106 27.75 17.6279 27.8858 16.9909 28.1496C16.354 28.4135 15.7752 28.8002 15.2877 29.2877C14.8002 29.7752 14.4135 30.354 14.1496 30.9909C13.8858 31.6279 13.75 32.3106 13.75 33Z" fill="white"/>
<path d="M38.25 33C38.25 34.3924 37.6969 35.7277 36.7123 36.7123C35.7277 37.6969 34.3924 38.25 33 38.25C31.6076 38.25 30.2723 37.6969 29.2877 36.7123C28.3031 35.7277 27.75 34.3924 27.75 33C27.75 31.6076 28.3031 30.2723 29.2877 29.2877C30.2723 28.3031 31.6076 27.75 33 27.75C34.3924 27.75 35.7277 28.3031 36.7123 29.2877C37.6969 30.2723 38.25 31.6076 38.25 33Z" stroke="#424242" stroke-width="2.5" stroke-linecap="round" stroke-linejoin="round"/>
<path d="M13.75 33C13.75 33.6894 13.8858 34.3721 14.1496 35.0091C14.4135 35.646 14.8002 36.2248 15.2877 36.7123C15.7752 37.1998 16.354 37.5865 16.9909 37.8504C17.6279 38.1142 18.3106 38.25 19 38.25C19.6894 38.25 20.3721 38.1142 21.0091 37.8504C21.646 37.5865 22.2248 37.1998 22.7123 36.7123C23.1998 36.2248 23.5865 35.646 23.8504 35.0091C24.1142 34.3721 24.25 33.6894 24.25 33C24.25 32.3106 24.1142 31.6279 23.8504 30.9909C23.5865 30.354 23.1998 29.7752 22.7123 29.2877C22.2248 28.8002 21.646 28.4135 21.0091 28.1496C20.3721 27.8858 19.6894 27.75 19 27.75C18.3106 27.75 17.6279 27.8858 16.9909 28.1496C16.354 28.4135 15.7752 28.8002 15.2877 29.2877C14.8002 29.7752 14.4135 30.354 14.1496 30.9909C13.8858 31.6279 13.75 32.3106 13.75 33Z" stroke="#424242" stroke-width="2.5" stroke-linecap="round" stroke-linejoin="round"/>
<path d="M20.6651 19.8622C20.7203 19.2477 20.9709 18.6592 21.4964 18.3359C22.2783 17.8549 23.7157 17.25 26 17.25C28.2843 17.25 29.7217 17.8549 30.5036 18.3359C31.029 18.6592 31.2797 19.2477 31.3348 19.8622L31.7076 24.0163C31.7541 24.5336 31.0824 24.9444 30.6014 24.7483C29.6605 24.3646 28.1552 23.9583 26 23.9583C23.8447 23.9583 22.3395 24.3646 21.3986 24.7483C20.9177 24.9444 20.2459 24.5336 20.2923 24.0163L20.6651 19.8622Z" fill="#E5EBED"/>
<path d="M20.6651 19.8622C20.7203 19.2477 20.9709 18.6592 21.4964 18.3359C22.2783 17.8549 23.7157 17.25 26 17.25C28.2843 17.25 29.7217 17.8549 30.5036 18.3359C31.0291 18.6592 31.2797 19.2477 31.3349 19.8622L31.7077 24.0163C31.7541 24.5336 31.0823 24.9444 30.6014 24.7483C29.6605 24.3646 28.1552 23.9583 26 23.9583C23.8447 23.9583 22.3395 24.3646 21.3986 24.7483C20.9177 24.9444 20.2459 24.5336 20.2923 24.0163L20.6651 19.8622Z" stroke="#424242" stroke-width="2.5" stroke-linecap="round" stroke-linejoin="round"/>
<path d="M13.9512 31.5552C14.6805 26.7159 16.3934 18.3246 17.3761 15.6112C17.496 15.28 17.6635 14.9655 17.9276 14.7324C18.3874 14.3266 19.3401 13.75 21.0415 13.75C22.2693 13.75 23.178 14.0502 23.7975 14.3699C24.5356 14.7507 24.8333 15.578 24.827 16.4085C24.825 16.6729 24.8224 16.9739 24.8188 17.3074M24.6831 24.0117C24.5972 26.8506 24.4622 30.0276 24.2499 33M27.1809 17.3074C27.1774 16.9739 27.1747 16.6729 27.1727 16.4085C27.1664 15.578 27.4641 14.7507 28.2022 14.3699C28.8217 14.0502 29.7304 13.75 30.9582 13.75C32.6597 13.75 33.6124 14.3266 34.0721 14.7324C34.3363 14.9655 34.5037 15.28 34.6236 15.6112C35.6064 18.3246 37.3193 26.7159 38.0485 31.5552M27.7499 33C27.5375 30.0276 27.4025 26.8506 27.3166 24.0117" stroke="#424242" stroke-width="2.5" stroke-linecap="round" stroke-linejoin="round"/>
</g>
<defs>
<clipPath id="clip0_65_415">
<rect width="28" height="28" fill="white" transform="translate(12 12)"/>
</clipPath>
</defs>
</svg>
